<svg xmlns="http://www.w3.org/2000/svg" viewBox="0 0 869.82 385.74">
  <defs>
    <style>
      .cls-1 {
        fill: #5896D1;
      }

      .cls-2 {
        fill: #913D3D;
      }

      .cls-3 {
        font-size: 213.1px;
        font-family: MyriadPro-Regular, Myriad Pro;
      }

      .cls-4 {
        letter-spacing: 0em;
      }

      .cls-5 {
        letter-spacing: -0.01em;
      }

      .cls-6 {
        font-size: 66.29px;
        fill: #7c7c7c;
      }

      .cls-6, .cls-7 {
        font-family: ArialMT, Arial;
      }

      .cls-7 {
        font-size: 29.78px;
      }

      .cls-8 {
        stroke: #000;
        stroke-miterlimit: 10;
      }
    </style>
  </defs>
  <title>atom_logo</title>
  <g id="color_font">
    <path class="cls-1" d="M197.72,167.72s.56-.24,1.61-.61c8.86-3.12,52.23-15.17,76.39,37.61,0,0,29,41,56,37l2,9s-28,9-57-28c0,0,14,64,33,73,0,0-44-37-51-83,0,0,0-16-6-24,0,0-20.44,25.09-10.27,51.08.38,1,.8,1.95,1.27,2.92,13,27-6,20-6,20s11-4-6-26c0,0-10-25,9-55C240.72,181.72,229.72,164.72,197.72,167.72Z"/>
    <path class="cls-2" d="M119,236.72s-.17.59-.41,1.67c-2,9.17-8.74,53.68,46.58,71.28,0,0,44.21,23.82,43.5,51.11l9.18.9s5.55-28.89-34.69-53.2c0,0,65.22,6.16,76.45,23.93,0,0-42.05-39.2-88.56-40.59,0,0-15.88,1.94-24.55-3.05,0,0,22.43-23.32,49.46-16.38,1,.26,2,.57,3.06.92,28.37,9.63,19.13-8.38,19.13-8.38s-2.64,11.4-26.54-2.81c0,0-26-6.9-53.51,15.59C138.05,277.71,119.85,268.84,119,236.72Z"/>
    <text class="cls-3" transform="translate(373.22 291.73)"><tspan class="cls-4">a</tspan><tspan class="cls-5" x="101.86" y="0">t</tspan><tspan x="171.12" y="0">om</tspan></text>
    <text class="cls-6" transform="translate(608.22 356.19)">institutes</text>
    <text class="cls-7" transform="translate(821.06 214.27)">TM</text>
  </g>
  <g id="Layer_4" data-name="Layer 4">
    <path class="cls-8" d="M343.93,357.44c13.78-17.44,16.14-45,15.73-64.74-4.88-56.69-21.25-160.54-75.94-180,0,0-38-27-85-5,0,0-2-22,13-40,0,0-5-26-25-24l4-10s0-24-35-26c0,0-17,1-21,6,0,0-8-18-22-12l-18,10s-14,1-3,17l6,13-6,4-11-6s-8,0-16,8l-13,10S43.5,63.2,55.86,75.91c.57.59,1.19,1.19,1.86,1.81l17,19s-7,20-5,33-2,0-2,0l-19-14s-9-3-15,5l-16,19s-8,9-1,16l8,6-16,4s-12-1-7,15l7,23s6,12,18,9l31-8,10,15,1,7s-4,90,40,116c0,0,78,48,158,42,0,0,25,1,49.77-8.72C328.55,370.89,337.42,364.41,343.93,357.44Zm-25.51-3.09c-13,6.24-49.94,19.42-112,6.69a225.66,225.66,0,0,1-78.66-28.32s-43-25-40-111c0,0-16-43-26-42l-35,11-6-15,20-7s18-3,2-14l-7-7,9-12s46,32,44,38c0,0,27,30,24,44,0,0,15-48-24-68l4-56-25-28,10-6,15,12s9,5,14,0l9-14s6-8,0-15l-6-20,7-4,11,17s5,4,11-2c0,0,12-14,29-6,0,0-63,119,6,161l12,1s-53-48-8-130c0,0,5.62-2.25,8.86,0a5.37,5.37,0,0,1,2.14,4c1,8-48,79,29,78,0,0-23-11-17-18,0,0,96-31,123,82,0,0,20,75,18,96C341.72,301.72,343.32,345.93,318.42,354.35Z"/>
  </g>
</svg>
