<svg id="svg2" xmlns="http://www.w3.org/2000/svg" viewBox="0 0 240.39 324.88">
  <defs>
    <style>
    #checkmark {
      opacity: 0;
    }
    .hidden {
        display: none;
    }
      .cls-1, .cls-10, .cls-11 {
        fill: #c1c1c1;
        stroke: #000;
      }

      .cls-1, .cls-10, .cls-12, .cls-2, .cls-4, .cls-5, .cls-7, .cls-8, .cls-9 {
        stroke-miterlimit: 10;
      }

      .cls-1 {
        opacity: 0.5;
      }

      .cls-2, .cls-3, .cls-4, .cls-5, .cls-7 {
        fill: #d91e00;
        transition: 2s ease;
      }

      .cls-12, .cls-2, .cls-3, .cls-4, .cls-5, .cls-7 {
        stroke: #791e00;
      }

      .cls-11, .cls-3 {
        stroke-linecap: round;
        stroke-linejoin: round;
      }

      .cls-3, .cls-4 {
        stroke-width: 4px;
      }

      .cls-5 {
        stroke-width: 5px;
      }

      .cls-6 {
        fill: #791e00;
        transition: 2s ease;
      }

      .cls-12, .cls-7 {
        stroke-width: 3px;
      }

      .cls-8, .cls-9 {
        fill: #8bffff;
        stroke: #2cffff;
      }

      .cls-11, .cls-8 {
        opacity: 0.1;
      }

      .cls-9 {
        opacity: 0.25;
      }

      .cls-10 {
        opacity: 0.2;
      }

      .cls-11 {
        stroke-width: 2px;
      }

      .cls-12 {
        fill: #00db00;
      }
    </style>
  </defs>
  <title>heart5</title>
  <path id="glass-bottom" class="cls-1 jar" d="M239.39,313.23c0,6.43-45.56,10.65-119,10.65s-118-4.22-118-10.65,44.56-12.65,118-12.65S239.39,306.8,239.39,313.23Z"/>
  <g id="heart">
    <path id="a-two" class="cls-3 heart" d="M24,144.52a8.7,8.7,0,0,0,10.83.63c.83-.59,1.8-1.25,2.88-2,.55-.36,7.18,26.58,7.78,26.2,5.19-3.26,17.31-7.95,26.37-10.07,2.53-.59-1.24-28.28.59-28.39,14.49-.8,50,15,50,15s16.58,8.12,27.23,5c-3.62-6.25-4.49-25.37-4.49-25.37L140.73,117s25-16.74,29.37-20c2.07-1.55,3.53-1,5-.34,3.58,1.66,9.62,8,9.62,8s4.67-5.57,5.45-11.36-1.49-6.2-1.49-6.2l-12.09-1.79a63.24,63.24,0,0,1,4.95-7.75,8,8,0,0,0,1.23-7.09,5.83,5.83,0,0,0-4-4.14c-4.45-1.71-8.23,4-8.23,4L160,81.87s-11.09,14.32-42.38,21c-28.59,6.14-85.39,9.49-95,10a3.29,3.29,0,0,0-2.41,1.29A9.32,9.32,0,0,0,18,118.64a9.44,9.44,0,0,0,.81,5.94,5.44,5.44,0,0,0,.4.7,3.06,3.06,0,0,0,1.91,1.32L31.53,129A27.18,27.18,0,0,1,22,136.41a2.54,2.54,0,0,0-1.3,3.29A13.43,13.43,0,0,0,24,144.52Z"/>
    <path id="a-one" class="cls-4 heart" d="M74.44,125.1s-5.16-13.7.6-33.2c2.86-10.37.08-11,.08-11l-10.41-8.4a4.19,4.19,0,0,1-1.34-4.7c.69-1.89,2.41-4.1,6.54-5.22,7.79,10.59,9.26,3.27,9.26,3.27L80,60s1-4.17,4-4,4.69,4.57,4.69,4.57L85.93,69.2s-.41,2.27,1.59,5.32,4.07,1.85,4.07,1.85l6.67-2.51a5.19,5.19,0,0,0,3.18-5c-.14-3.75.82-14.67.82-14.67s6.24-7,13.93-2.29A97,97,0,0,0,119.12,63s1.3,4.58,4.22,5.6,4.73,2.44,7.92-2.56a98.32,98.32,0,0,0,3.17-11.77,11.64,11.64,0,0,1,8.7-1.58c4.68,1.19,1.32,14.72,1.32,14.72s-2,7.08,3.21,8.51,10.41,4.78,11.11,6.63c-.39.46-1.27,1.5-1.53,1.77A26.89,26.89,0,0,1,152.07,89a58.33,58.33,0,0,1-15.74,7.87c-4.31,1.4-8,2.44-8.17,2.46-7.94-11-10,2.52-10,2.52s-2.47,13.07-.91,25.77a22,22,0,0,1,.18,4.14c-.48,7.74-3.89,6.32-3.89,6.32l-8-6.24a33.19,33.19,0,0,1-6.29-4.14,13.41,13.41,0,0,0-2.81-1.68,26,26,0,0,0-16.46-1.82A53.85,53.85,0,0,1,74.44,125.1Z"/>
    <path id="heart-shell" class="cls-5 heart" d="M67.41,129.64c9.49-8,23.38-8.08,33.36-.71a162.24,162.24,0,0,1,16.8,14.16c11.68,10.82,33.49,8.1,33.49,8.1s30.58,17.23,42.13,31.05a143.1,143.1,0,0,1,17.95,27.48,107.67,107.67,0,0,1,8.67,39.85c.43,19.51,2.29,32.83-6.78,51.66a20.67,20.67,0,0,1-14.74,11.32c-16.5,3.15-40.6,6.44-75.9-8.53C79.63,285.88,65.3,271.41,65.3,271.41s-27.07-23.62-31-55.51c-2.68-21.44,5.82-39.07,11.68-48.32a58.69,58.69,0,0,1,7-8.88c3.4-3.6,10.18-12.1,10.06-22.52C63.35,133.82,65.06,131.62,67.41,129.64Z"/>
    <path id="v-left" class="cls-6 v-left" d="M102.83,130.89s13.9,10,16-.12a95,95,0,0,1-.55,34.45s-1.56,9.21,1.46,14.05a7.31,7.31,0,0,1,1,3,35.8,35.8,0,0,0,8.37,18.62s-9.26-3.27-9.22-8.78c-2.91,5.75-2,5.84-2,5.84s-2.23-2.54,1-9.68c-.21-1-.39-1.94-.56-2.69a10.74,10.74,0,0,0-2.91-5.25,9.61,9.61,0,0,1-2.75-4.09c-6.48,2.44-11.25,9.42-12.34,11.12-.16.26-.34.51-.53.76-2.45,3.21-19.51,26.4-16.21,45.57,0,0,3,20.42,13.83,27.76s13.91,13.36,25.58,14c4.26-.88,5.53-.91,5.83-.77a8.28,8.28,0,0,0,1.71.66l9.18,1.85,1.85,2.68s-11.25-2.95-15.69-1.28c12.74,9.15,22.56,13.91,30.29,13.11s23,8.25,23,8.25,17.56,10.72,22.93,10.39c-3.7,1.39-14.44-1.32-14.44-1.32l-6.54-3.88s-15-9.57-18.81-7.29c1.12,3,13.17,10.26,13.17,10.26a31.52,31.52,0,0,1-11.44-4.57c-5.15-3.56-11.87-9.06-18-8.45s-17.56-7.33-17.56-7.33S109.29,276,97.89,269.28c-3.29-2-5.44-2.76-6.84-3a2.51,2.51,0,0,0-2.82,2c-.72,3.74-2.07,13.86,3,19.11-2.23-1-4-3.88-5.35-6.79A35,35,0,0,1,82.92,269c-.51-6.34-1.32-18.25-.66-22.16.92-5.42-3.72-12.12-3.72-12.12s-8.2,1.81-3.77,22.55c3.11,2.63,3.39,3.37,3.39,3.37s-4.08-1.84-4.63,3.44-3.31-14.4-3.31-14.4l-4.62,3.44s5.68-8.49,7.24-16.68,3.51-6.4,3.51-6.4-1-.46,1.94-8.33,8.39-22.61,8.39-22.61-5.6,4.22-8.32,8.21-3.14,6.25-3.14,6.25h0a15.81,15.81,0,0,1,5.09-12l9.51-8.75a114.67,114.67,0,0,1,8.45-11.22c3.14-3.57,5.87-6.57,8-8.93a20.55,20.55,0,0,0,3.81-5.92l1.94-4.58a21.66,21.66,0,0,0,1.6-6.28c.41-4.29.67-11.34-1.56-15C108.76,135.42,102.83,130.89,102.83,130.89Z"/>
    <path id="v-right" class="cls-6 v-right" d="M149.38,152.89a1.47,1.47,0,0,1,2.21-1.9c7.13,6.7,19.32,24.85,29.37,25.71,6.8.59,9.91,3.88,9.91,3.88s-2.78-.64-9.77-.13c-.78,2.41.84,5.61.84,5.61s19.53,26,28.17,45.6c5,8.7,6.68,11,6.68,11L209,234.21s15.43,43.22,4,58.93a123.78,123.78,0,0,0,1.35-26.71l-6.65,12.65s1.1-7.18-3.35-8.89c2,.42,3.21.15,4-.43a9.44,9.44,0,0,0,3.56-9.42l-2.14-11.64-6.56-17.4s-4.93-17.58-12.21-24.56a26.92,26.92,0,0,0-.44,3.6,5.87,5.87,0,0,0,3.09,5.46l0,0a2.77,2.77,0,0,1,1.42,2.1,8.65,8.65,0,0,0,1.47,3.62c-2.09-2.17-3.57-1.61-3.57-1.61s3.67,7.49.11,12.64a56.15,56.15,0,0,0-4.51-18,50.87,50.87,0,0,1-1.85-5.05l-2.49-8.05c-.21-.69-.41-1.38-.59-2.08-.5-1.9-2.09-6.84-5.58-8.91C175.48,188.9,156.39,163.21,149.38,152.89Z"/>
    <path id="a-one-two" class="cls-7 heart" d="M145.88,125.37s29.54,4.22,29.82-3.65S171.62,97,171.62,97l-30,19.52Z"/>
  </g>
  <path id="water-whole" class="cls-8 jar" d="M2.32,42.29V312.23s-24.23,11.65,104,11.65c133,.06,133-11.65,133-11.65V42.29s13,11.65-120,11.65C-8.07,53.94,2.32,42.29,2.32,42.29Z"/>
  <path id="water-top" class="cls-9 jar" d="M239.39,42.29c0,6.43-45.56,11.65-119,11.65s-118-5.22-118-11.65,44.56-11.65,118-11.65S239.39,35.85,239.39,42.29Z"/>
  <path id="glass-top" class="cls-10 jar" d="M239.39,12.15c0,6.43-44.56,11.65-118,11.65s-119-5.22-119-11.65S47.88.5,121.36.5,239.39,5.72,239.39,12.15Z"/>
  <path id="glass-whole" class="cls-11 jar" d="M2.32,12.15V312.23s-17.16,11.78,104,11.65c133,0,133-11.65,133-11.65V13.15s1.54,10.65-120,10.65C-1.29,23.8,2.32,12.15,2.32,12.15Z"/>
  <polygon id="checkmark" class="cls-12" points="209.18 174.69 96.09 306.31 39.18 247.5 65.87 222.25 98.09 267.44 189.3 152.25 209.18 174.69"/>
</svg>
